<?xml version="1.0" encoding="utf-8"?>
<!-- Generator: Adobe Illustrator 26.0.3, SVG Export Plug-In . SVG Version: 6.00 Build 0)  -->
<svg version="1.1" id="Layer_1" xmlns="http://www.w3.org/2000/svg" xmlns:xlink="http://www.w3.org/1999/xlink" x="0px" y="0px"
	 viewBox="0 0 473 101" style="enable-background:new 0 0 473 101;" xml:space="preserve">
<style type="text/css">
	.st0{fill:url(#SVGID_1_);}
	.st1{fill:url(#SVGID_00000016780181613997388530000000933907573264926396_);}
	.st2{fill:#FFFFFF;}
	.st3{fill:none;}
	.st4{fill:#E6E7E8;}
	.st5{fill:#00AEEF;}
	.st6{opacity:0.5;fill:url(#SVGID_00000023253051449512243690000010350962133614900628_);enable-background:new    ;}
	.st7{opacity:0.56;fill:url(#SVGID_00000096768475522767808190000004931944634505711772_);enable-background:new    ;}
	.st8{fill:url(#SVGID_00000114757510497058302970000002512621278548287926_);}
</style>
<g>
	
		<linearGradient id="SVGID_1_" gradientUnits="userSpaceOnUse" x1="11.397" y1="689.6313" x2="460.1" y2="689.6313" gradientTransform="matrix(1 0 0 1 0 -638)">
		<stop  offset="0" style="stop-color:#FFFFFF"/>
		<stop  offset="1" style="stop-color:#000000"/>
	</linearGradient>
	<path class="st0" d="M392.5,36.8l-0.3-1.4l-0.3,1.4h-313l16.5-1.9l-16.3-1.2l25.2-0.6l-26.7-1.2c0.9-5.6-0.7-8.7-2.4-10.5
		c-1.4-1.5-3.3-2.4-5.7-2.7c-0.9-2.2-2.3-3.8-4.1-4.9c-8.5-4.9-23.3,6.4-35.1,26.8C14.1,57.5,7.2,74.8,14,81.9
		c1.4,1.5,3.3,2.4,5.7,2.7c0.9,2.2,2.3,3.8,4.1,4.9c1.3,0.8,2.9,1.1,4.5,1.1c6.2,0,14-5.4,21.9-15.2h201.4l-176-4.3h290.6h71.9
		l22-34.3H392.5z"/>
	
		<linearGradient id="SVGID_00000078020697915975636890000013008582776934636179_" gradientUnits="userSpaceOnUse" x1="8.6685" y1="689.7677" x2="463.3633" y2="689.7677" gradientTransform="matrix(1 0 0 1 0 -638)">
		<stop  offset="0" style="stop-color:#FFFFFF"/>
		<stop  offset="1" style="stop-color:#000000"/>
	</linearGradient>
	<path style="fill:url(#SVGID_00000078020697915975636890000013008582776934636179_);" d="M394.8,33.8h65.6c1.1,0,2.1,0.6,2.6,1.6
		s0.5,2.1-0.1,3.1l-22,34.3c-0.6,0.9-1.5,1.4-2.5,1.4H254.5c0.2,0.4,0.3,0.8,0.3,1.3c0,1.6-1.4,3-3,3h-200
		c-8.3,10-16.3,15.2-23.3,15.2c-2.2,0-4.2-0.5-6-1.5c-1.9-1.1-3.5-2.7-4.6-4.8c-2.3-0.6-4.2-1.7-5.8-3.3c-8.1-8.4-1.5-26.9,16-45.2
		c12.8-22,28.8-33.3,39-27.6c1.9,1.1,3.5,2.7,4.6,4.8c2.3,0.6,4.2,1.7,5.8,3.3c1.7,1.8,3.5,4.8,3.5,9.7l23.6,1.1
		c1.6,0.1,2.9,1.4,2.9,3c0,0.2,0,0.4-0.1,0.7h282.4L394.8,33.8L394.8,33.8z M61.1,15.7c-6.7,0-17.9,8.9-28.1,26.4
		c-0.1,0.2-0.3,0.4-0.4,0.6C16.3,59.6,11.5,74.9,16.3,79.8c1,1,2.3,1.6,3.9,1.8c1.1,0.1,2,0.8,2.4,1.8c0.7,1.6,1.6,2.7,2.8,3.4
		c0.9,0.5,1.9,0.8,3,0.8c5.2,0,12.3-5.1,19.6-14.1c0.6-0.7,1.4-1.1,2.3-1.1H73c-0.2-0.4-0.3-0.8-0.3-1.3c0-1.6,1.4-3,3-3h360.9
		l18.2-28.3h-62.3c-0.1,0-0.2,0-0.3,0c-0.1,0-0.2,0-0.3,0h-313c-1.6,0-2.9-1.2-3-2.8c0-0.7,0.2-1.4,0.6-1.9
		c-0.1-0.2-0.2-0.3-0.2-0.5c-0.4-0.2-0.7-0.5-1-0.8c-0.5-0.7-0.8-1.5-0.6-2.4c0.6-3.5,0-6.3-1.6-7.9c-1-1-2.3-1.6-3.9-1.8
		c-1.1-0.1-2-0.8-2.4-1.8c-0.7-1.6-1.6-2.7-2.8-3.4C63.2,16,62.2,15.7,61.1,15.7z"/>
</g>
<g>
	<g>
		<g>
			<polygon points="33.7,40.9 37.3,34.7 50.9,22.1 61,19.8 67.2,31 66.3,46.2 35.8,50.9 29.5,46.3 			"/>
			<path d="M75.3,21.4c-1.4-1.5-3.3-2.4-5.7-2.7c-0.9-2.2-2.3-3.8-4.1-4.9C57,8.9,42.2,20.2,30.4,40.6C14.2,57.5,7.3,74.8,14.1,81.9
				c1.4,1.5,3.3,2.4,5.7,2.7c0.9,2.2,2.3,3.8,4.1,4.9c1.3,0.8,2.9,1.1,4.5,1.1c6.5,0,14.6-5.8,22.8-16.4l2.7-3.4l-1.3-0.2
				c1.6-1.9,3.1-3.9,4.5-6.1l1.4-2.1l1.7-1.9c5.8-6.7,9.6-14,10.6-20.3l1.3-1.6h0.1l0.7-0.7c0.2-0.2,0.5-0.4,1.2-0.4l2.2,0.1
				l0.6-1.9C79.2,27.7,77.3,23.5,75.3,21.4z"/>
			<polygon points="438.3,71.1 366.4,71.1 30.2,71.1 52.6,36.8 460.3,36.8 			"/>
			<g>
				<path class="st2" d="M40,39.3h53.5l1.7,3.6l-8,12.6H55.7l-6.3,9.9H28.9l12.8-20.3l2.9,3.6l-2.2-4.5L40,39.3z M71.9,49.2l3-4.7
					H62.8l-3.7,5.8H79L71.9,49.2z"/>
				<path class="st2" d="M96.8,39.3h47.8l2.5,5.1l0,0l1.7,3.6L141,60.2h0.1l-3.2,5.2H91.4l-2.5-5.2l9.6-15.1l2.8,3.6l-2.2-4.5
					L96.8,39.3z M121.7,60.2l10-15.8h-12.1l-9.3,14.7l-8.4,1.1C101.9,60.2,121.7,60.2,121.7,60.2z"/>
				<path class="st2" d="M152.7,39.3h53.5l1.7,3.6l-8,12.6h-5.3l4.7,9.9h-18.1l-4.3-8.9l-0.5-1h-8.1l-6.3,9.9h-20.6l12.8-20.3
					l2.9,3.6l-2.2-4.5L152.7,39.3z M184.6,49.2l3-4.7h-12.1l-3.7,5.8h19.9L184.6,49.2z"/>
				<path class="st2" d="M209.8,39.3h52.1l2.5,5.1h-24.6l8.1,1.3l-12.4,19.7h-20.7l13.2-21h-15.7l-0.2-0.3L209.8,39.3z"/>
				<path class="st2" d="M300.8,65.4h-58.5l29.5-20.1l3.1,3.9l-2.2-4.5l-2.6-5.4h18.1L300.8,65.4z M260.6,60.2h19.5l-2.9-6l-7,4.8
					L260.6,60.2z"/>
				<path class="st2" d="M315.7,39.3h26l-12.5,19.8l-8.4,1.1h19.9l3.9-6.2h12.6l2.9,6.1v0.1h0.1l-3.2,5.2h-52.2l12.8-20.3l2.9,3.6
					l-2.2-4.5L315.7,39.3z"/>
			</g>
			<g>
				<path class="st3" d="M21.8,70.4c1.2-7.5,4.5-16.6,9.5-25.8C23.1,54.1,19.3,64.4,21.8,70.4z"/>
				<path class="st3" d="M34.5,40.3C42,33,49.8,27.4,56.6,24.2C50.2,23.4,41.4,29.8,34.5,40.3z"/>
				<path class="st3" d="M62.4,28.3c-6.8-1.8-18.1,3.2-27.8,12.8c-0.5,0.5-1,1-1.5,1.5c-0.4,0.6-0.7,1.2-1.1,1.8
					c-6.6,12-8.3,24.4-4.9,30.6c6.8,1.8,18.1-3.2,27.8-12.8c0.5-0.5,1-1,1.5-1.5c0.4-0.6,0.7-1.2,1.1-1.8
					C64.1,46.8,65.8,34.5,62.4,28.3z"/>
				<path class="st3" d="M55,63c-7.5,7.3-15.3,12.9-22.1,16.1C39.3,79.9,48.1,73.5,55,63z"/>
				<path class="st3" d="M67.7,32.8c-1.2,7.5-4.5,16.6-9.5,25.8C66.4,49.2,70.2,38.9,67.7,32.8z"/>
				<g>
					<path class="st4" d="M31.3,44.6c0.1-0.2,0.2-0.3,0.3-0.5c0.4-0.6,0.7-1.3,1.1-1.9c-14.8,15.3-22.2,32-16.5,37.9
						c1.3,1.4,3.3,2,5.7,2.1c-0.8-3-0.8-7,0-11.7C19.3,64.4,23.1,54.1,31.3,44.6z"/>
					<path class="st4" d="M74.1,34.8c0.1,0,0.1,0,0.2,0c1.6-5.1,1.4-9.2-0.9-11.6c-1.3-1.4-3.3-2-5.7-2.1c-3.1,0-6.9,1-11.1,3
						c-6.8,3.2-14.6,8.7-22.1,16.1c-0.5,0.7-1,1.5-1.4,2.3c0.5-0.5,1-1,1.5-1.5c9.7-9.6,21-14.6,27.8-12.8c1.5,0.4,2.8,1.1,3.8,2.1
						c0.7,0.7,1.2,1.5,1.6,2.4c0.4,1.1,0.7,2.2,0.7,3.5c0.3-0.1,0.7-0.2,1.1-0.2c0.4,0,0.9-0.1,1.4-0.1
						C71.7,35.3,72.7,34.8,74.1,34.8z"/>
					<path class="st4" d="M44.2,71.5c-0.4,0-0.7-0.1-1.1-0.2c-6,3.4-11.8,4.8-15.9,3.7c0.8,1.4,1.8,2.5,3,3.2
						c0.8,0.5,1.8,0.8,2.7,0.9c3.8-1.8,7.9-4.3,12.1-7.5C44.8,71.6,44.5,71.6,44.2,71.5z"/>
				</g>
				<g>
					<path class="st5" d="M47.7,72c-5.1,5-10.5,7.6-14.7,7.1c-1-0.1-1.9-0.4-2.7-0.9c-1.3-0.7-2.3-1.8-3-3.2
						c-3.5-6.3-1.7-18.6,4.9-30.6c0.3-0.6,0.7-1.2,1.1-1.8c0.5-0.8,0.9-1.6,1.4-2.3c6.9-10.5,15.7-16.9,22.1-16.1c4.2-2,8-3,11.1-3
						c-0.6-2.4-1.8-4.1-3.4-5.1c-7.1-4-21,7.6-31.6,26.1c-0.4,0.6-0.7,1.3-1.1,1.9c-0.1,0.2-0.2,0.3-0.3,0.5
						c-5,9.2-8.2,18.4-9.5,25.8c-0.8,4.7-0.8,8.7,0,11.7c0.6,2.4,1.8,4.1,3.4,5.1c5.5,3.1,15-3.1,23.9-14.6
						C48.7,72.5,48.1,72.3,47.7,72z"/>
					<path class="st5" d="M66.3,36.4c0.2,0.1,0.5,0.2,0.7,0.3c0.3-1.3,0.6-2.6,0.8-3.8c-0.4-0.9-0.9-1.7-1.6-2.4
						c-1-1.1-2.3-1.8-3.8-2.1c1,1.8,1.5,4,1.7,6.6C65,35.1,65.8,35.7,66.3,36.4z"/>
				</g>
			</g>
			<polygon points="75.3,34.2 59.8,35.4 75.9,32.8 59.8,34.1 76.8,31.1 76.8,34.5 74,37.4 59.8,37.4 62.4,35.7 			"/>
			<polygon points="51.8,70 31.9,72.9 46.5,71.9 35.9,73.5 51.6,72 39.2,73.8 47.5,73 40.9,74 50.5,73.2 52.7,72 52.7,69.5 			"/>
			<polygon points="77.1,31.9 104.4,33.1 79.2,33.8 95.5,34.9 74,37.4 			"/>
			<polygon points="48.4,75.4 251.8,75.4 52.7,70.5 			"/>
		</g>
		<g>
			<path class="st5" d="M436.1,68.5H378l2.5-4l1.6-2.5l0.8-1.2l18.8-1.2l1.5,3.3h13.6l2.8-4.5L429,57h-40.2l-1.5-3.2l4.3-6.9
				l2.3,2.9l-1.8-3.8l0,0l-0.6-1.2l0,0l-2.6-5.4h65.5l-3.7,5.7l-1.6,2.5l-7.9,12.6L436.1,68.5z M407.1,45.1l7.8,1.2l-3.1,4.9h12.1
				l3.9-6.2L407.1,45.1L407.1,45.1z"/>
		</g>
		
			<linearGradient id="SVGID_00000058567692504338497540000009027714921482102693_" gradientUnits="userSpaceOnUse" x1="26.5" y1="689.5" x2="71.8" y2="689.5" gradientTransform="matrix(1 0 0 1 0 -638)">
			<stop  offset="0" style="stop-color:#000000"/>
			<stop  offset="3.655583e-02" style="stop-color:#000000;stop-opacity:0.9634"/>
			<stop  offset="6.698062e-02" style="stop-color:#000000;stop-opacity:0.933"/>
			<stop  offset="1" style="stop-color:#000000;stop-opacity:0"/>
		</linearGradient>
		
			<polygon style="opacity:0.5;fill:url(#SVGID_00000058567692504338497540000009027714921482102693_);enable-background:new    ;" points="
			52.7,34.6 38.5,39.3 26.5,68.4 52.7,68 71.8,35.4 		"/>
		
			<linearGradient id="SVGID_00000114071264076600405040000003130401437084457870_" gradientUnits="userSpaceOnUse" x1="71.8" y1="690.65" x2="368" y2="690.65" gradientTransform="matrix(1 0 0 1 0 -638)">
			<stop  offset="0" style="stop-color:#000000"/>
			<stop  offset="3.655583e-02" style="stop-color:#000000;stop-opacity:0.9634"/>
			<stop  offset="1" style="stop-color:#000000;stop-opacity:0"/>
		</linearGradient>
		
			<polygon style="opacity:0.56;fill:url(#SVGID_00000114071264076600405040000003130401437084457870_);enable-background:new    ;" points="
			349.7,42.2 71.8,60.2 346.7,50.9 202.9,65 368,57.5 366.6,52.3 349.4,50.9 354.8,40.3 		"/>
	</g>
	
		<linearGradient id="SVGID_00000046318296497580529130000011583719498261060748_" gradientUnits="userSpaceOnUse" x1="783.0996" y1="-90.2351" x2="755.4418" y2="-67.2915" gradientTransform="matrix(-0.1827 0.9832 -0.9832 -0.1827 459.8779 -724.5202)">
		<stop  offset="0" style="stop-color:#FFFFFF"/>
		<stop  offset="1" style="stop-color:#E6E7E8;stop-opacity:0"/>
	</linearGradient>
	<polygon style="fill:url(#SVGID_00000046318296497580529130000011583719498261060748_);" points="453.5,40.9 393.2,39.9 
		392.2,35.4 391.5,39.5 333.5,39.8 392,41.3 392.6,45.1 393.1,42.4 	"/>
</g>
</svg>
