<?xml version="1.0" encoding="UTF-8"?>
<!-- Generator: Adobe Illustrator 26.0.3, SVG Export Plug-In . SVG Version: 6.00 Build 0)  -->
<svg version="1.1" id="Layer_1" xmlns="http://www.w3.org/2000/svg" xmlns:xlink="http://www.w3.org/1999/xlink" x="0px" y="0px" viewBox="0 0 544.3 315.5" style="enable-background:new 0 0 544.3 315.5;" xml:space="preserve">
<style type="text/css">
	.st0{fill:url(#SVGID_1_);}
	.st1{fill:none;}
	.st2{fill:#E6E7E8;}
	.st3{fill:#00AEEF;}
	.st4{opacity:0.34;}
	.st5{fill:#414042;}
	.st6{fill:url(#SVGID_00000125562590769812637450000006379964019280561061_);}
	.st7{opacity:0.5;fill:url(#SVGID_00000129201238552352642450000014715360585375709860_);}
	.st8{opacity:0.15;fill:url(#SVGID_00000128462740392483854280000011164282448036702888_);}
	.st9{fill:#FFFFFF;}
	.st10{fill:url(#SVGID_00000089549709354777686900000009591759904456596105_);}
	.st11{fill:url(#SVGID_00000095328803212750462270000002620941204571952303_);}
	.st12{fill:url(#SVGID_00000037676756752055128480000010298965559836251820_);}
	.st13{fill:url(#SVGID_00000176756770937781423230000007890564736560700572_);}
	.st14{fill:url(#SVGID_00000179640441071878549200000003470167734569937848_);}
	.st15{fill:url(#SVGID_00000022529044462216763260000013384098177754104249_);}
	.st16{fill:url(#SVGID_00000043433270885972182450000017429194633383184549_);}
	.st17{opacity:0.43;fill:url(#SVGID_00000004508916431932849390000009672647202754094473_);}
	.st18{opacity:0.43;fill:url(#SVGID_00000099659018374118682490000016309076501505171592_);}
	.st19{fill:url(#SVGID_00000029034938397249629450000013276933134648264608_);}
</style>
<linearGradient id="SVGID_1_" gradientUnits="userSpaceOnUse" x1="60.5092" y1="157.9313" x2="405.0988" y2="157.9313" gradientTransform="matrix(1 0 0 -1 0 318)">
	<stop offset="0" style="stop-color:#FFFFFF"/>
	<stop offset="1" style="stop-color:#000000"/>
</linearGradient>
<path class="st0" d="M493.7,114.8c-1.3-2.4-3.8-3.9-6.6-3.9H371.8l-33.4-1.2c0-0.3,0.1-0.6,0.1-0.9c0.1-4-2.9-7.4-6.9-7.7L268,96.4  c-0.2-12.3-4.9-19.9-9.1-24.3c-4.1-4.3-9.3-7.2-15.4-8.7c-3-5.6-7.1-9.9-12.3-12.8c-7.6-4.3-20.7-7.3-39.7,3.1  c-23.5,8.3-50.7,36.1-73.1,74.6c-21.3,22.2-37.5,45.9-45.7,66.6c-9,22.9-8,41.8,3,53.1c4.1,4.3,9.3,7.2,15.4,8.7  c3,5.6,7.1,9.9,12.3,12.8c4.7,2.7,10,4,15.7,4c7.5,0,15.6-2.4,24.1-7c14.3-5,30.1-17.5,45.9-36.1h177.6c4.1,0,7.4-3.2,7.5-7.3  c0-0.6,0-1.2-0.1-1.7l46,0.1c2.6,0,5-1.3,6.3-3.5l0.5-0.9h2.8c2.6,0,5-1.3,6.3-3.5l57.5-91.3C495,120.1,495.1,117.1,493.7,114.8z"/>
<g>
	<path d="M420,214l57.5-91.3H362l-80.1-2.9l-27.7-5.3l67.1-1.6l-70.9-5.3c1.8-13.6-2.3-21.6-6.6-26c-3.8-4-8.9-6.4-15.1-7.2   c-2.4-5.9-6.1-10.2-10.8-12.9c-22.8-12.9-62,17-93.4,71.3c-43.3,45-61.5,91.1-43.3,110c3.8,4,8.9,6.4,15.1,7.2   c2.4,5.9,6.1,10.2,10.8,12.9c3.6,2,7.6,3.1,12,3.1c17.2,0,38.8-15.5,60.8-43.7l6.5-8.3h12l0.2-0.3h76.2L420,214z"/>
	<g>
		<polygon points="371.7,118.4 487.2,118.4 429.7,209.6 242.6,209.3 273,125.7 273,114.8   "/>
		<polygon points="142.7,129.1 152.3,112.8 188.5,79.3 215.3,73.1 232,102.7 229.6,143.2 148.1,155.9 131.4,143.5   "/>
		<path d="M253.5,77.3c-3.8-4-8.9-6.4-15.1-7.2c-2.4-5.9-6.1-10.2-10.8-12.9c-22.8-12.9-62,17-93.4,71.3    c-43.3,45-61.5,91.1-43.3,110c3.8,4,8.9,6.4,15.1,7.2c2.4,5.9,6.1,10.2,10.8,12.9c3.6,2,7.6,3.1,12,3.1    c17.2,0,38.8-15.5,60.8-43.7l7.2-9.2l-3.5-0.6c4.3-5,8.3-10.4,12.1-16.2l3.7-5.7l4.4-5.1c15.4-17.8,25.5-37.4,28.2-54l3.4-4.3h0.3    l1.8-1.8c0.5-0.5,1.3-1.1,3.1-1.1l5.8,0.3l1.6-5.2C264,94,258.9,82.9,253.5,77.3z"/>
		<g>
			<path class="st1" d="M110.9,207.9c3.3-19.9,11.9-44.2,25.3-68.8C114.4,164.3,104.4,191.9,110.9,207.9z"/>
			<path class="st1" d="M144.9,127.5c19.9-19.5,40.7-34.3,58.8-42.8C186.7,82.5,163.2,99.6,144.9,127.5z"/>
			<path class="st1" d="M219,95.6c-18.2-4.7-48.2,8.5-74.1,34.1c-1.3,1.3-2.6,2.7-3.9,4c-0.9,1.6-1.9,3.2-2.8,4.9     c-17.6,32-22.2,64.9-13,81.5c18.2,4.7,48.2-8.5,74.1-34.1c1.3-1.3,2.6-2.7,3.9-4c0.9-1.6,1.9-3.2,2.8-4.9     C223.6,145.1,228.2,112.2,219,95.6z"/>
			<path class="st1" d="M199.4,188.1c-19.9,19.5-40.7,34.3-58.8,42.8C157.6,233.2,181.1,216.1,199.4,188.1z"/>
			<path class="st1" d="M233.4,107.8c-3.3,19.9-11.9,44.2-25.3,68.8C229.8,151.4,239.9,123.8,233.4,107.8z"/>
			<g>
				<path class="st2" d="M136.2,139c0.2-0.4,0.4-0.8,0.7-1.3c0.9-1.7,1.9-3.4,2.9-5.1c-39.4,40.7-59,85.2-43.9,100.8      c3.6,3.7,8.8,5.5,15.2,5.5c-2.2-8-2.2-18.7-0.1-31.1C104.4,191.9,114.4,164.3,136.2,139z"/>
				<path class="st2" d="M250.2,112.9c0.2,0,0.4,0,0.6,0c4.2-13.5,3.7-24.5-2.3-30.8c-3.6-3.7-8.8-5.5-15.2-5.5      c-8.2,0-18.4,2.8-29.6,8.1c-18.1,8.5-38.9,23.3-58.8,42.8c-1.3,2-2.6,4.1-3.8,6.2c1.3-1.4,2.6-2.7,3.9-4      c25.8-25.6,55.8-38.8,74.1-34.1c4,1,7.5,2.9,10.2,5.7c1.8,1.9,3.2,4.1,4.2,6.5c1.1,2.8,1.7,6,1.9,9.4c0.9-0.3,1.9-0.5,2.9-0.6      c1.2-0.1,2.5-0.3,3.8-0.4C243.9,114.2,246.7,112.9,250.2,112.9z"/>
				<path class="st2" d="M170.5,210.9c-1-0.1-2-0.3-2.9-0.6c-16.1,9-31.4,12.7-42.4,9.9c2,3.7,4.7,6.5,8.1,8.5      c2.2,1.3,4.7,2.1,7.3,2.4c10.1-4.7,21.1-11.5,32.3-19.9C172.1,211,171.3,210.9,170.5,210.9z"/>
			</g>
			<g>
				<path class="st3" d="M179.9,212.1c-13.7,13.2-27.9,20.4-39.2,18.9c-2.6-0.3-5-1.1-7.3-2.4c-3.4-1.9-6.1-4.8-8.1-8.5      c-9.2-16.7-4.6-49.5,13-81.5c0.9-1.7,1.8-3.3,2.8-4.9c1.2-2.1,2.5-4.2,3.8-6.2c18.3-27.9,41.8-45,58.8-42.8      c11.2-5.3,21.4-8.1,29.6-8.1c-1.7-6.3-4.7-10.9-9.2-13.5c-18.8-10.7-56,20.2-84.3,69.5c-1,1.7-1.9,3.4-2.9,5.1      c-0.2,0.4-0.4,0.8-0.7,1.3c-13.3,24.6-22,48.9-25.3,68.8c-2.1,12.4-2.1,23.1,0.1,31.1c1.7,6.3,4.7,10.9,9.2,13.5      c14.5,8.3,39.9-8.2,63.8-38.8C182.6,213.4,181.2,212.8,179.9,212.1z"/>
				<path class="st3" d="M229.5,117.2c0.6,0.2,1.2,0.4,1.8,0.7c0.8-3.5,1.5-6.9,2.1-10.2c-1-2.5-2.4-4.6-4.2-6.5      c-2.7-2.8-6.2-4.7-10.2-5.7c2.6,4.7,4.1,10.8,4.5,17.7C226.1,113.9,228.1,115.3,229.5,117.2z"/>
			</g>
		</g>
		<polygon points="250.5,111.3 209.2,109.4 252.5,108 209.6,106.1 255.5,103.6 254.4,112.6 246.1,119.4 208.5,114.8 215.8,111.1       "/>
		<polygon points="190.9,206.7 137.8,214.6 176.8,211.9 148.4,216 190.3,212 157.4,216.8 179.4,214.7 161.9,217.3 187.3,215.3     193.3,212 193.3,205.5   "/>
		<polygon points="257.6,103.1 331,108.6 263.9,110.2 306.6,118.4 250.1,119.9   "/>
		<g class="st4">
			
				<image style="overflow:visible;opacity:0.75;enable-background:new    ;" width="1463" height="342" xlink:href="C7A018D0C9F266BE.png" transform="matrix(0.2393 0 0 0.2393 122.794 123.2731)">
			</image>
			<g>
				<g>
					<g>
						<path class="st5" d="M155.5,126.9H298l4.6,9.5L281.4,170h-83.9l-16.7,26.4h-54.9l34-54.1l7.6,9.5l-5.9-12.1L155.5,126.9z         M240.4,153.3l8-12.6h-32.3l-9.9,15.6h53L240.4,153.3z"/>
					</g>
					<g>
						<path class="st5" d="M422.2,201.9H271.8l6.6-10.3l4.1-6.6l2.1-3.2l48.5-3.2l4,8.4h35.1l7.3-11.6l24.4-3.2h-104l-4-8.3        l11.2-17.8l6,7.6l-4.7-9.8v-0.1l-1.7-3.2v-0.1l-6.7-13.9h169.7l-9.5,14.8l-4.1,6.6l-20.5,32.5L422.2,201.9z M347.1,141.4        l20.3,3.2l-7.9,12.7h31.2l10.1-15.9H347.1z"/>
					</g>
				</g>
			</g>
		</g>
		
			<linearGradient id="SVGID_00000158733074217593070290000008448451127244575412_" gradientUnits="userSpaceOnUse" x1="123.4" y1="156.95" x2="327.4" y2="156.95" gradientTransform="matrix(1 0 0 -1 0 318)">
			<stop offset="0" style="stop-color:#000000"/>
			<stop offset="3.655583e-02" style="stop-color:#000000;stop-opacity:0.9634"/>
			<stop offset="1" style="stop-color:#000000;stop-opacity:0"/>
		</linearGradient>
		<polygon style="fill:url(#SVGID_00000158733074217593070290000008448451127244575412_);" points="241.8,118.4 244.1,114.5     193.3,112.5 155.4,124.9 123.4,202.4 138.1,202.2 133.2,209.6 208.1,209.6 208.3,209.3 284.5,209.3 284.5,182.9 292.4,183.2     307.8,153.8 327.4,118.4   "/>
		<g>
			<path class="st3" d="M426.2,199.9H275.8l6.6-10.3l4.1-6.6l2.1-3.2l48.5-3.2l4,8.4h35.1l7.3-11.6l24.4-3.2h-104l-4-8.3l11.2-17.8     l6,7.6l-4.7-9.8v-0.1l-1.7-3.2v-0.1l-6.7-13.9h169.7l-9.5,14.8l-4.1,6.6l-20.5,32.5L426.2,199.9z M351.1,139.4l20.3,3.2     l-7.9,12.7h31.2l10.1-15.9H351.1z"/>
		</g>
		
			<linearGradient id="SVGID_00000037682784822738147370000003680855994299181704_" gradientUnits="userSpaceOnUse" x1="-964.2924" y1="120.9121" x2="-794.5924" y2="120.9121" gradientTransform="matrix(-1 0 0 1 -484.1924 41.3879)">
			<stop offset="0" style="stop-color:#000000"/>
			<stop offset="0.1145" style="stop-color:#000000;stop-opacity:0.8855"/>
			<stop offset="1" style="stop-color:#000000;stop-opacity:0"/>
		</linearGradient>
		<polygon style="opacity:0.5;fill:url(#SVGID_00000037682784822738147370000003680855994299181704_);" points="310.4,201.7     362.1,121.3 480.1,121.3 430.5,203.3 310.4,203.3   "/>
		
			<linearGradient id="SVGID_00000098187214700219887330000010366583267411716778_" gradientUnits="userSpaceOnUse" x1="509.5708" y1="246.8763" x2="189.1846" y2="216.9082" gradientTransform="matrix(0.9954 9.550401e-02 9.550401e-02 -0.9954 -26.7943 352.4771)">
			<stop offset="0" style="stop-color:#000000"/>
			<stop offset="1" style="stop-color:#000000;stop-opacity:0"/>
		</linearGradient>
		<polygon style="opacity:0.15;fill:url(#SVGID_00000098187214700219887330000010366583267411716778_);" points="477.2,131     128.1,131.7 465.3,145.8 264.8,151.3 430.8,163.2 347.1,164 437.2,170.7 445,179.6   "/>
		<g>
			<path class="st9" d="M159.5,124.9H302l4.6,9.5L285.4,168h-83.9l-16.7,26.4h-54.9l34-54.1l7.6,9.5l-5.9-12.1L159.5,124.9z      M244.4,151.3l8-12.6h-32.3l-9.9,15.6h53L244.4,151.3z"/>
		</g>
		<polygon points="180.4,222.9 366.7,222.9 189.6,211.7   "/>
		<polygon points="240.3,114.3 217,115.2 224.6,119.4 231.7,119.9   "/>
	</g>
	
		<linearGradient id="SVGID_00000136394552581906739040000014037722135805487019_" gradientUnits="userSpaceOnUse" x1="104.9868" y1="77.4235" x2="101.5002" y2="102.0983" gradientTransform="matrix(1 0 0 -1 0 318)">
		<stop offset="0" style="stop-color:#2484C6"/>
		<stop offset="1" style="stop-color:#2484C6;stop-opacity:0"/>
	</linearGradient>
	<path style="fill:url(#SVGID_00000136394552581906739040000014037722135805487019_);" d="M109,237c0,0-1.5-3.7-1.3-11.3   c0.2-9.3,1.8-16,1.8-16s-3-7.5-2.2-15.2C92.3,207.1,85,232.1,109,237z"/>
	
		<linearGradient id="SVGID_00000059990131974354060050000011403780851516641431_" gradientUnits="userSpaceOnUse" x1="253.6432" y1="213.0781" x2="239.9427" y2="225.0659" gradientTransform="matrix(1 0 0 -1 0 318)">
		<stop offset="0" style="stop-color:#2484C6"/>
		<stop offset="1" style="stop-color:#2484C6;stop-opacity:0"/>
	</linearGradient>
	<path style="fill:url(#SVGID_00000059990131974354060050000011403780851516641431_);" d="M234.3,103.6l16.7-1.1c0,0,1.9-6,0-12.1   c-0.8-2.6-3.9-8.7-7.6-8.7c-5-0.1-11.1,7.3-14.3,16C233.4,101.8,234.3,103.6,234.3,103.6z"/>
	
		<linearGradient id="SVGID_00000062884880275907214620000011012489965451659181_" gradientUnits="userSpaceOnUse" x1="223.4308" y1="229.5574" x2="209.8051" y2="241.4799" gradientTransform="matrix(1 0 0 -1 0 318)">
		<stop offset="0" style="stop-color:#2484C6"/>
		<stop offset="1" style="stop-color:#2484C6;stop-opacity:0"/>
	</linearGradient>
	<path style="fill:url(#SVGID_00000062884880275907214620000011012489965451659181_);" d="M230.3,75.2c0,0-5.8-0.1-13.8,2.4   c-8.1,2.5-12.1,5.8-12.1,5.8s-3.9-0.8-11,1.1c3-5.3,13.3-15.3,22.6-17.6S228.2,70,230.3,75.2z"/>
	
		<linearGradient id="SVGID_00000119806315640668172220000018205278362892309639_" gradientUnits="userSpaceOnUse" x1="173.9795" y1="101.4565" x2="150.005" y2="81.5685" gradientTransform="matrix(1 0 0 -1 0 318)">
		<stop offset="0" style="stop-color:#2484C6"/>
		<stop offset="1" style="stop-color:#2484C6;stop-opacity:0"/>
	</linearGradient>
	<path style="fill:url(#SVGID_00000119806315640668172220000018205278362892309639_);" d="M175.5,217.3l4.4-0.4c0,0-5,6.4-13.5,14.8   S148,247.1,141.1,250c-6.8-4.9-5.9-14.8,3.5-16.6C153.9,231.7,160.8,231.4,175.5,217.3z"/>
	
		<linearGradient id="SVGID_00000143606369490116386010000006696706852878587020_" gradientUnits="userSpaceOnUse" x1="112.488" y1="670.9802" x2="84.83" y2="648.0366" gradientTransform="matrix(0.7598 0.6502 0.6502 -0.7598 -306.9986 521.5494)">
		<stop offset="0" style="stop-color:#FFFFFF"/>
		<stop offset="1" style="stop-color:#E6E7E8;stop-opacity:0"/>
	</linearGradient>
	<polygon style="fill:url(#SVGID_00000143606369490116386010000006696706852878587020_);" points="220.5,32.8 189.5,84.5    185.2,83.1 188.3,85.8 159.6,136.2 190.2,86.2 193.7,87.6 191.6,85.8  "/>
	
		<linearGradient id="SVGID_00000079470008944987699460000002310162017744753570_" gradientUnits="userSpaceOnUse" x1="-346.9101" y1="967.5989" x2="-374.5681" y2="944.6553" gradientTransform="matrix(-0.1827 0.9832 0.9832 0.1827 -717.3148 380.9827)">
		<stop offset="0" style="stop-color:#FFFFFF"/>
		<stop offset="1" style="stop-color:#E6E7E8;stop-opacity:0"/>
	</linearGradient>
	<polygon style="fill:url(#SVGID_00000079470008944987699460000002310162017744753570_);" points="345.4,195.7 285.1,194.6    284.1,190.2 283.4,194.3 225.4,194.6 284,196.1 284.5,199.9 285,197.1  "/>
	
		<linearGradient id="SVGID_00000013185722040950885170000007433398526637626754_" gradientUnits="userSpaceOnUse" x1="-770.5524" y1="910.1919" x2="-777.7764" y2="904.1992" gradientTransform="matrix(-0.56 0.8285 0.8285 0.56 -994.8669 220.7593)">
		<stop offset="0" style="stop-color:#FFFFFF"/>
		<stop offset="1" style="stop-color:#E6E7E8;stop-opacity:0"/>
	</linearGradient>
	<polygon style="fill:url(#SVGID_00000013185722040950885170000007433398526637626754_);" points="204.4,92 190.1,85.5 190.3,84.3    189.7,85.2 175.8,79.2 189.6,85.7 189.4,86.7 189.8,86.1  "/>
	
		<linearGradient id="SVGID_00000160172514432793362520000001110471380051618193_" gradientUnits="userSpaceOnUse" x1="201.8734" y1="138.7088" x2="145.1994" y2="133.4076" gradientTransform="matrix(1 0 0 -1 0 318)">
		<stop offset="0" style="stop-color:#000000"/>
		<stop offset="0.1413" style="stop-color:#000000;stop-opacity:0.8587"/>
		<stop offset="1" style="stop-color:#000000;stop-opacity:0"/>
	</linearGradient>
	<path style="opacity:0.43;fill:url(#SVGID_00000160172514432793362520000001110471380051618193_);" d="M136.2,191.4h45.5l14.5-21.8   C196.2,169.6,184.7,190.9,136.2,191.4z"/>
	
		<linearGradient id="SVGID_00000060709409229978737300000010762858203752931007_" gradientUnits="userSpaceOnUse" x1="380.2" y1="130.25" x2="437.4" y2="130.25" gradientTransform="matrix(1 0 0 -1 0 318)">
		<stop offset="0" style="stop-color:#000000;stop-opacity:0"/>
		<stop offset="0.8587" style="stop-color:#000000;stop-opacity:0.8587"/>
		<stop offset="1" style="stop-color:#000000"/>
	</linearGradient>
	<path style="opacity:0.43;fill:url(#SVGID_00000060709409229978737300000010762858203752931007_);" d="M423.6,197.2h-43.4   c0,0,30-2.5,40.5-6.4s16.7-12.5,16.7-12.5L423.6,197.2z"/>
	
		<linearGradient id="SVGID_00000018940831460930877940000005726374200899927447_" gradientUnits="userSpaceOnUse" x1="383.3286" y1="209.7339" x2="348.1993" y2="180.5926" gradientTransform="matrix(1 0 0 -1 0 318)">
		<stop offset="0" style="stop-color:#FFFFFF"/>
		<stop offset="1" style="stop-color:#E6E7E8;stop-opacity:0"/>
	</linearGradient>
	<polygon style="fill:url(#SVGID_00000018940831460930877940000005726374200899927447_);" points="310.4,126.9 408.8,129 312.5,131     "/>
</g>
</svg>