<?xml version="1.0" encoding="utf-8"?>
<!-- Generator: Adobe Illustrator 26.0.3, SVG Export Plug-In . SVG Version: 6.00 Build 0)  -->
<svg version="1.1" id="Layer_1" xmlns="http://www.w3.org/2000/svg" xmlns:xlink="http://www.w3.org/1999/xlink" x="0px" y="0px"
	 viewBox="0 0 612 151.5" style="enable-background:new 0 0 612 151.5;" xml:space="preserve">
<style type="text/css">
	.st0{fill:url(#SVGID_1_);}
	.st1{fill:url(#SVGID_00000070097684802927882730000009214226792480576440_);}
	.st2{fill:#FFFFFF;}
	.st3{fill:none;}
	.st4{fill:#E6E7E8;}
	.st5{fill:#00AEEF;}
	.st6{opacity:0.5;fill:url(#SVGID_00000059295759296420486620000017936680905752325793_);}
	.st7{opacity:0.56;fill:url(#SVGID_00000047761881387465208080000011093884161453148593_);}
	.st8{fill:url(#SVGID_00000070099296106932338050000008796142314078304185_);}
</style>
<g>
	
		<linearGradient id="SVGID_1_" gradientUnits="userSpaceOnUse" x1="77.397" y1="76.3687" x2="526.1" y2="76.3687" gradientTransform="matrix(1 0 0 -1 0 154)">
		<stop  offset="0" style="stop-color:#FFFFFF"/>
		<stop  offset="1" style="stop-color:#000000"/>
	</linearGradient>
	<path class="st0" d="M458.5,62.8l-0.3-1.4l-0.3,1.4h-313l16.5-1.9l-16.3-1.2l25.2-0.6l-26.7-1.2c0.9-5.6-0.7-8.7-2.4-10.5
		c-1.4-1.5-3.3-2.4-5.7-2.7c-0.9-2.2-2.3-3.8-4.1-4.9c-8.5-4.9-23.3,6.4-35.1,26.8C80.1,83.5,73.2,100.8,80,107.9
		c1.4,1.5,3.3,2.4,5.7,2.7c0.9,2.2,2.3,3.8,4.1,4.9c1.3,0.8,2.9,1.1,4.5,1.1c6.2,0,14-5.4,21.9-15.2h201.4l-176-4.3h290.6h71.9
		l22-34.3C526.1,62.8,458.5,62.8,458.5,62.8z"/>
	
		<linearGradient id="SVGID_00000007419645973787010170000010702247495086707901_" gradientUnits="userSpaceOnUse" x1="74.6685" y1="76.2323" x2="529.3633" y2="76.2323" gradientTransform="matrix(1 0 0 -1 0 154)">
		<stop  offset="0" style="stop-color:#FFFFFF"/>
		<stop  offset="1" style="stop-color:#000000"/>
	</linearGradient>
	<path style="fill:url(#SVGID_00000007419645973787010170000010702247495086707901_);" d="M460.8,59.8h65.6c1.1,0,2.1,0.6,2.6,1.6
		s0.5,2.1-0.1,3.1l-22,34.3c-0.6,0.9-1.5,1.4-2.5,1.4H320.5c0.2,0.4,0.3,0.8,0.3,1.3c0,1.6-1.4,3-3,3h-200
		c-8.3,10-16.3,15.2-23.3,15.2c-2.2,0-4.2-0.5-6-1.5c-1.9-1.1-3.5-2.7-4.6-4.8c-2.3-0.6-4.2-1.7-5.8-3.3c-8.1-8.4-1.5-26.9,16-45.2
		c12.8-22,28.8-33.3,39-27.6c1.9,1.1,3.5,2.7,4.6,4.8c2.3,0.6,4.2,1.7,5.8,3.3c1.7,1.8,3.5,4.8,3.5,9.7l23.6,1.1
		c1.6,0.1,2.9,1.4,2.9,3c0,0.2,0,0.4-0.1,0.7h282.4L460.8,59.8L460.8,59.8z M127.1,41.7c-6.7,0-17.9,8.9-28.1,26.4
		c-0.1,0.2-0.3,0.4-0.4,0.6c-16.3,16.9-21.1,32.2-16.3,37.1c1,1,2.3,1.6,3.9,1.8c1.1,0.1,2,0.8,2.4,1.8c0.7,1.6,1.6,2.7,2.8,3.4
		c0.9,0.5,1.9,0.8,3,0.8c5.2,0,12.3-5.1,19.6-14.1c0.6-0.7,1.4-1.1,2.3-1.1H139c-0.2-0.4-0.3-0.8-0.3-1.3c0-1.6,1.4-3,3-3h360.9
		l18.2-28.3h-62.3c-0.1,0-0.2,0-0.3,0c-0.1,0-0.2,0-0.3,0h-313c-1.6,0-2.9-1.2-3-2.8c0-0.7,0.2-1.4,0.6-1.9
		c-0.1-0.2-0.2-0.3-0.2-0.5c-0.4-0.2-0.7-0.5-1-0.8c-0.5-0.7-0.8-1.5-0.6-2.4c0.6-3.5,0-6.3-1.6-7.9c-1-1-2.3-1.6-3.9-1.8
		c-1.1-0.1-2-0.8-2.4-1.8c-0.7-1.6-1.6-2.7-2.8-3.4C129.2,42,128.2,41.7,127.1,41.7z"/>
</g>
<g>
	<g>
		<g>
			<polygon points="99.7,66.9 103.3,60.7 116.9,48.1 127,45.8 133.2,57 132.3,72.2 101.8,76.9 95.5,72.3 			"/>
			<path d="M141.3,47.4c-1.4-1.5-3.3-2.4-5.7-2.7c-0.9-2.2-2.3-3.8-4.1-4.9c-8.5-4.9-23.3,6.4-35.1,26.8
				c-16.2,16.9-23.1,34.2-16.3,41.3c1.4,1.5,3.3,2.4,5.7,2.7c0.9,2.2,2.3,3.8,4.1,4.9c1.3,0.8,2.9,1.1,4.5,1.1
				c6.5,0,14.6-5.8,22.8-16.4l2.7-3.4l-1.3-0.2c1.6-1.9,3.1-3.9,4.5-6.1l1.4-2.1l1.7-1.9c5.8-6.7,9.6-14,10.6-20.3l1.3-1.6h0.1
				l0.7-0.7c0.2-0.2,0.5-0.4,1.2-0.4l2.2,0.1l0.6-1.9C145.2,53.7,143.3,49.5,141.3,47.4z"/>
			<polygon points="504.3,97.1 432.4,97.1 96.2,97.1 118.6,62.8 526.3,62.8 			"/>
			<g>
				<path class="st2" d="M106,65.3h53.5l1.7,3.6l-8,12.6h-31.5l-6.3,9.9H94.9l12.8-20.3l2.9,3.6l-2.2-4.5L106,65.3z M137.9,75.2
					l3-4.7h-12.1l-3.7,5.8H145L137.9,75.2z"/>
				<path class="st2" d="M162.8,65.3h47.8l2.5,5.1l0,0l1.7,3.6L207,86.2h0.1l-3.2,5.2h-46.5l-2.5-5.2l9.6-15.1l2.8,3.6l-2.2-4.5
					L162.8,65.3z M187.7,86.2l10-15.8h-12.1l-9.3,14.7l-8.4,1.1C167.9,86.2,187.7,86.2,187.7,86.2z"/>
				<path class="st2" d="M218.7,65.3h53.5l1.7,3.6l-8,12.6h-5.3l4.7,9.9h-18.1l-4.3-8.9l-0.5-1h-8.1l-6.3,9.9h-20.6l12.8-20.3
					l2.9,3.6l-2.2-4.5L218.7,65.3z M250.6,75.2l3-4.7h-12.1l-3.7,5.8h19.9L250.6,75.2z"/>
				<path class="st2" d="M275.8,65.3h52.1l2.5,5.1h-24.6l8.1,1.3l-12.4,19.7h-20.7l13.2-21h-15.7l-0.2-0.3L275.8,65.3z"/>
				<path class="st2" d="M366.8,91.4h-58.5l29.5-20.1l3.1,3.9l-2.2-4.5l-2.6-5.4h18.1L366.8,91.4z M326.6,86.2h19.5l-2.9-6l-7,4.8
					L326.6,86.2z"/>
				<path class="st2" d="M381.7,65.3h26l-12.5,19.8l-8.4,1.1h19.9l3.9-6.2h12.6l2.9,6.1v0.1h0.1l-3.2,5.2h-52.2l12.8-20.3l2.9,3.6
					l-2.2-4.5L381.7,65.3z"/>
			</g>
			<g>
				<path class="st3" d="M87.8,96.4c1.2-7.5,4.5-16.6,9.5-25.8C89.1,80.1,85.3,90.4,87.8,96.4z"/>
				<path class="st3" d="M100.5,66.3c7.5-7.3,15.3-12.9,22.1-16.1C116.2,49.4,107.4,55.8,100.5,66.3z"/>
				<path class="st3" d="M128.4,54.3c-6.8-1.8-18.1,3.2-27.8,12.8c-0.5,0.5-1,1-1.5,1.5c-0.4,0.6-0.7,1.2-1.1,1.8
					c-6.6,12-8.3,24.4-4.9,30.6c6.8,1.8,18.1-3.2,27.8-12.8c0.5-0.5,1-1,1.5-1.5c0.4-0.6,0.7-1.2,1.1-1.8
					C130.1,72.8,131.8,60.5,128.4,54.3z"/>
				<path class="st3" d="M121,89c-7.5,7.3-15.3,12.9-22.1,16.1C105.3,105.9,114.1,99.5,121,89z"/>
				<path class="st3" d="M133.7,58.8c-1.2,7.5-4.5,16.6-9.5,25.8C132.4,75.2,136.2,64.9,133.7,58.8z"/>
				<g>
					<path class="st4" d="M97.3,70.6c0.1-0.2,0.2-0.3,0.3-0.5c0.4-0.6,0.7-1.3,1.1-1.9c-14.8,15.3-22.2,32-16.5,37.9
						c1.3,1.4,3.3,2,5.7,2.1c-0.8-3-0.8-7,0-11.7C85.3,90.4,89.1,80.1,97.3,70.6z"/>
					<path class="st4" d="M140.1,60.8c0.1,0,0.1,0,0.2,0c1.6-5.1,1.4-9.2-0.9-11.6c-1.3-1.4-3.3-2-5.7-2.1c-3.1,0-6.9,1-11.1,3
						c-6.8,3.2-14.6,8.7-22.1,16.1c-0.5,0.7-1,1.5-1.4,2.3c0.5-0.5,1-1,1.5-1.5c9.7-9.6,21-14.6,27.8-12.8c1.5,0.4,2.8,1.1,3.8,2.1
						c0.7,0.7,1.2,1.5,1.6,2.4c0.4,1.1,0.7,2.2,0.7,3.5c0.3-0.1,0.7-0.2,1.1-0.2c0.4,0,0.9-0.1,1.4-0.1
						C137.7,61.3,138.7,60.8,140.1,60.8z"/>
					<path class="st4" d="M110.2,97.5c-0.4,0-0.7-0.1-1.1-0.2c-6,3.4-11.8,4.8-15.9,3.7c0.8,1.4,1.8,2.5,3,3.2
						c0.8,0.5,1.8,0.8,2.7,0.9c3.8-1.8,7.9-4.3,12.1-7.5C110.8,97.6,110.5,97.6,110.2,97.5z"/>
				</g>
				<g>
					<path class="st5" d="M113.7,98c-5.1,5-10.5,7.6-14.7,7.1c-1-0.1-1.9-0.4-2.7-0.9c-1.3-0.7-2.3-1.8-3-3.2
						c-3.5-6.3-1.7-18.6,4.9-30.6c0.3-0.6,0.7-1.2,1.1-1.8c0.5-0.8,0.9-1.6,1.4-2.3c6.9-10.5,15.7-16.9,22.1-16.1c4.2-2,8-3,11.1-3
						c-0.6-2.4-1.8-4.1-3.4-5.1c-7.1-4-21,7.6-31.6,26.1c-0.4,0.6-0.7,1.3-1.1,1.9c-0.1,0.2-0.2,0.3-0.3,0.5
						c-5,9.2-8.2,18.4-9.5,25.8c-0.8,4.7-0.8,8.7,0,11.7c0.6,2.4,1.8,4.1,3.4,5.1c5.5,3.1,15-3.1,23.9-14.6
						C114.7,98.5,114.1,98.3,113.7,98z"/>
					<path class="st5" d="M132.3,62.4c0.2,0.1,0.5,0.2,0.7,0.3c0.3-1.3,0.6-2.6,0.8-3.8c-0.4-0.9-0.9-1.7-1.6-2.4
						c-1-1.1-2.3-1.8-3.8-2.1c1,1.8,1.5,4,1.7,6.6C131,61.1,131.8,61.7,132.3,62.4z"/>
				</g>
			</g>
			<polygon points="141.3,60.2 125.8,61.4 141.9,58.8 125.8,60.1 142.8,57.1 142.8,60.5 140,63.4 125.8,63.4 128.4,61.7 			"/>
			<polygon points="117.8,96 97.9,98.9 112.5,97.9 101.9,99.5 117.6,98 105.2,99.8 113.5,99 106.9,100 116.5,99.2 118.7,98 
				118.7,95.5 			"/>
			<polygon points="143.1,57.9 170.4,59.1 145.2,59.8 161.5,60.9 140,63.4 			"/>
			<polygon points="114.4,101.4 317.8,101.4 118.7,96.5 			"/>
		</g>
		<g>
			<path class="st5" d="M502.1,94.5H444l2.5-4l1.6-2.5l0.8-1.2l18.8-1.2l1.5,3.3h13.6l2.8-4.5L495,83h-40.2l-1.5-3.2l4.3-6.9
				l2.3,2.9l-1.8-3.8l0,0l-0.6-1.2l0,0l-2.6-5.4h65.5l-3.7,5.7l-1.6,2.5l-7.9,12.6L502.1,94.5z M473.1,71.1l7.8,1.2l-3.1,4.9h12.1
				l3.9-6.2L473.1,71.1L473.1,71.1z"/>
		</g>
		
			<linearGradient id="SVGID_00000029014080239938879120000012013703513359790510_" gradientUnits="userSpaceOnUse" x1="92.5" y1="76.5" x2="137.8" y2="76.5" gradientTransform="matrix(1 0 0 -1 0 154)">
			<stop  offset="0" style="stop-color:#000000"/>
			<stop  offset="3.655583e-02" style="stop-color:#000000;stop-opacity:0.9634"/>
			<stop  offset="6.698062e-02" style="stop-color:#000000;stop-opacity:0.933"/>
			<stop  offset="1" style="stop-color:#000000;stop-opacity:0"/>
		</linearGradient>
		<polygon style="opacity:0.5;fill:url(#SVGID_00000029014080239938879120000012013703513359790510_);" points="118.7,60.6 
			104.5,65.3 92.5,94.4 118.7,94 137.8,61.4 		"/>
		
			<linearGradient id="SVGID_00000140701963888139821680000015878731592736556219_" gradientUnits="userSpaceOnUse" x1="137.8" y1="75.35" x2="434" y2="75.35" gradientTransform="matrix(1 0 0 -1 0 154)">
			<stop  offset="0" style="stop-color:#000000"/>
			<stop  offset="3.655583e-02" style="stop-color:#000000;stop-opacity:0.9634"/>
			<stop  offset="1" style="stop-color:#000000;stop-opacity:0"/>
		</linearGradient>
		<polygon style="opacity:0.56;fill:url(#SVGID_00000140701963888139821680000015878731592736556219_);" points="415.7,68.2 
			137.8,86.2 412.7,76.9 268.9,91 434,83.5 432.6,78.3 415.4,76.9 420.8,66.3 		"/>
	</g>
	
		<linearGradient id="SVGID_00000117647245737941289590000011345569383145565871_" gradientUnits="userSpaceOnUse" x1="535.4781" y1="478.9574" x2="507.8203" y2="456.0138" gradientTransform="matrix(-0.1827 0.9832 0.9832 0.1827 98.4457 -526.0783)">
		<stop  offset="0" style="stop-color:#FFFFFF"/>
		<stop  offset="1" style="stop-color:#E6E7E8;stop-opacity:0"/>
	</linearGradient>
	<polygon style="fill:url(#SVGID_00000117647245737941289590000011345569383145565871_);" points="519.5,66.9 459.2,65.9 
		458.2,61.4 457.5,65.5 399.5,65.8 458,67.3 458.6,71.1 459.1,68.4 	"/>
</g>
</svg>
